Coordinates
nRows=10
nColumns=38

# SIMM Motion File Header:
name Coordinates
datacolumns 38
datarows 10
otherdata 1
range 0.58999999999999997000 0.59899999999999998000

Units are S.I. units (second, meters, Newtons, ...)
Angles are in degrees.

endheader
time	pelvis_tilt	pelvis_list	pelvis_rotation	pelvis_tx	pelvis_ty	pelvis_tz	hip_flexion_r	hip_adduction_r	hip_rotation_r	knee_angle_r	ankle_angle_r	subtalar_angle_r	mtp_angle_r	hip_flexion_l	hip_adduction_l	hip_rotation_l	knee_angle_l	ankle_angle_l	subtalar_angle_l	mtp_angle_l	lumbar_extension	lumbar_bending	lumbar_rotation	arm_flex_r	arm_add_r	arm_rot_r	elbow_flex_r	pro_sup_r	wrist_flex_r	wrist_dev_r	arm_flex_l	arm_add_l	arm_rot_l	elbow_flex_l	pro_sup_l	wrist_flex_l	wrist_dev_l
      0.58999999999999997000	     -4.68060734573583750000	      0.06923425176426617500	      0.51175788891096530000	      0.70160689388021003000	      0.98501303775783655000	     -0.30608029681596410000	      8.52053474081949600000	      5.59245790973122500000	     -4.79512957391750750000	    -32.95897815359206400000	     14.73611733361256700000	     -0.00000000000001220430	     -0.00000000000002432973	     35.33038378488846100000	     -0.11743861685678215000	     -0.81915982183427016000	    -98.69678412265325600000	     -4.29852205949001310000	     -0.00000000000000346177	     -0.00000000000000574757	     -5.58003037998721040000	      4.13835192886774110000	      1.31057992282197170000	    -11.51092908954227100000	    -18.61637543933700900000	     -3.16762002239761480000	     79.87221668349008000000	     85.43438871874383300000	     -0.00000000000001546495	     -0.00000000000000839536	    -18.82534999271753800000	    -34.74967691259005400000	     27.44438363565266700000	     90.15795555963437400000	     77.76993327184182200000	      0.00000000000000137726	      0.00000000000001178959
      0.59099999999999997000	     -4.69146141995755170000	      0.15497646101813514000	      0.50579466931078765000	      0.70155644538982032000	      0.98542973971231129000	     -0.30600562185005714000	      8.24933279011610840000	      5.50780034603161810000	     -4.75860035043286360000	    -32.77758139271307400000	     14.54013400496218000000	     -0.00000000000001228472	     -0.00000000000002433672	     35.50890245278201000000	     -0.01959813693547903700	     -0.86378195933556645000	    -98.42728359459054800000	     -4.26388855921448420000	     -0.00000000000000353967	     -0.00000000000000566003	     -5.56985721627320540000	      4.02953676628317310000	      1.42979501407425920000	    -11.47306350174916600000	    -18.57800598163044000000	     -3.19018067273388390000	     80.09770273710651600000	     85.48077633301157600000	     -0.00000000000001562354	     -0.00000000000000848268	    -18.98592724962415100000	    -34.87622644157472300000	     27.46600961977615200000	     90.27018670099892000000	     77.70989224139012200000	      0.00000000000000139433	      0.00000000000001196807
      0.59199999999999997000	     -4.70274670614556190000	      0.24188966783297575000	      0.49980807525286897000	      0.70151190190498247000	      0.98585459615671278000	     -0.30593150119996698000	      7.97840442099073850000	      5.42158611509436120000	     -4.72158038792389690000	    -32.59529756727926000000	     14.33716138350745200000	     -0.00000000000001239627	     -0.00000000000002431384	     35.68394582116558700000	      0.07900758574516500400	     -0.90979455478955262000	    -98.15055975659876700000	     -4.22880379242204540000	     -0.00000000000000361694	     -0.00000000000000555420	     -5.55848803808671570000	      3.91914714757064650000	      1.54846423346232890000	    -11.43711782938518700000	    -18.53960669660536100000	     -3.21182666367039720000	     80.32335124528035000000	     85.52658221151375500000	     -0.00000000000001578401	     -0.00000000000000857037	    -19.14855547245558400000	    -35.00236752462633700000	     27.48501932558957300000	     90.38498904330580800000	     77.65069469656010900000	      0.00000000000000141122	      0.00000000000001211920
      0.59299999999999997000	     -4.71447134438218640000	      0.32990846610352115000	      0.49378119912174823000	      0.70147333849500848000	      0.98628738586582365000	     -0.30585797908352252000	      7.70782481471248640000	      5.33386504992388220000	     -4.68411301334748220000	    -32.41223895176882800000	     14.12718457661941200000	     -0.00000000000001248196	     -0.00000000000002425308	     35.85549731864969700000	      0.17829170318362322000	     -0.95717710241352461000	    -97.86669909834769500000	     -4.19323555162931780000	     -0.00000000000000369190	     -0.00000000000000544420	     -5.54588886456296760000	      3.80727538499094110000	      1.66656227820592550000	    -11.40305447343396300000	    -18.50120230324212800000	     -3.23254212085446160000	     80.54911439007082700000	     85.57160491973203900000	     -0.00000000000001594606	     -0.00000000000000865837	    -19.31331345023516700000	    -35.12799146375548500000	     27.50129812068669100000	     90.50218007814331100000	     77.59236231322634600000	      0.00000000000000142679	      0.00000000000001224180
      0.59399999999999997000	     -4.72664112688156200000	      0.41896575126819008000	      0.48769379233995264000	      0.70144083181535011000	      0.98672788745786888000	     -0.30578509424675210000	      7.43766508911801960000	      5.24468933485596980000	     -4.64624153904358560000	    -32.22851431667944400000	     13.91018887807695000000	     -0.00000000000001251681	     -0.00000000000002412635	     36.02353835320786900000	      0.27816499296604974000	     -1.00591104428885990000	    -97.57578922822502000000	     -4.15715431038317100000	     -0.00000000000000376384	     -0.00000000000000534343	     -5.53202789154299700000	      3.69401558925380510000	      1.78406834805381580000	    -11.37083774476119800000	    -18.46281685685716700000	     -3.25231502168722700000	     80.77494864849353500000	     85.61563887195706000000	     -0.00000000000001611004	     -0.00000000000000874627	    -19.48027789870762700000	    -35.25299111294229000000	     27.51474027055839100000	     90.62157858906591900000	     77.53490154212462900000	      0.00000000000000144100	      0.00000000000001237019
      0.59499999999999997000	     -4.73925943132896150000	      0.50899290165823219000	      0.48152263673399426000	      0.70141445928330681000	      0.98717587963505538000	     -0.30571288024825360000	      7.16799231118396830000	      5.15411329822024110000	     -4.60800941470829880000	    -32.04422886495773800000	     13.68615986544686800000	     -0.00000000000001257042	     -0.00000000000002398850	     36.18804841323466100000	      0.37853631333718618000	     -1.05597952150377020000	    -97.27791874594728900000	     -4.12053335720442430000	     -0.00000000000000383814	     -0.00000000000000522627	     -5.51687573658052250000	      3.57946341019502330000	      1.90096582850257190000	    -11.34043371749142000000	    -18.42447369084091900000	     -3.27113694423496870000	     81.00081431477238400000	     85.65847652089324500000	     -0.00000000000001627439	     -0.00000000000000883338	    -19.64952319172005300000	    -35.37726106037168700000	     27.52524894440019000000	     90.74300526505477600000	     77.47830422741900200000	      0.00000000000000145518	      0.00000000000001250452
      0.59599999999999997000	     -4.75232715478782270000	      0.59991996041111306000	      0.47524191726462928000	      0.70139429825273059000	      0.98763114143075859000	     -0.30564136575031248000	      6.89886950767152650000	      5.06219320569331900000	     -4.56946038060696670000	    -31.85948417118953900000	     13.45508346436379700000	     -0.00000000000001265165	     -0.00000000000002383391	     36.34900516757381400000	      0.47931305793418455000	     -1.10736712409646270000	    -96.97317711688019400000	     -4.08334892978820730000	     -0.00000000000000391364	     -0.00000000000000509410	     -5.50040568664009830000	      3.46371577858666010000	      2.01724197329837770000	    -11.31181008100885600000	    -18.38619535977904800000	     -3.28900281614554890000	     81.22667502170003200000	     85.69991054725660700000	     -0.00000000000001643836	     -0.00000000000000892098	    -19.82112108810195400000	    -35.50069781206919100000	     27.53273622046149400000	     90.86628331378204800000	     77.42254822546520600000	      0.00000000000000146858	      0.00000000000001266045
      0.59699999999999998000	     -4.76584264840582610000	      0.69167581801933520000	      0.46882359594408912000	      0.70138042518770372000	      0.98809345246860958000	     -0.30557057481713445000	      6.63035567412272900000	      4.96898705507137620000	     -4.53063862047270490000	    -31.67437812711308000000	     13.21694604713980900000	     -0.00000000000001275227	     -0.00000000000002371430	     36.50638456461469900000	      0.58040161007177316000	     -1.16005963997766680000	    -96.66165454847785600000	     -4.04558034941298760000	     -0.00000000000000399226	     -0.00000000000000495157	     -5.48259394852104090000	      3.34687064892516210000	      2.13288758632267460000	    -11.28493599044638700000	    -18.34800358393063700000	     -3.30591066361391660000	     81.45249726107496700000	     85.73973604939813200000	     -0.00000000000001660307	     -0.00000000000000900839	    -19.99514045376260900000	    -35.62319997760388900000	     27.53712309091314800000	     90.99123907499345900000	     77.36759802350913200000	      0.00000000000000148117	      0.00000000000001284892
      0.59799999999999998000	     -4.77980165274735750000	      0.78418839547158836000	      0.46223778695655077000	      0.70137291483538178000	      0.98856259322754969000	     -0.30550052722219889000	      6.36250578164283280000	      4.87455437182601690000	     -4.49158891546393590000	    -31.48900489022328100000	     12.97173450142440200000	     -0.00000000000001286554	     -0.00000000000002363883	     36.66016093020891000000	      0.68170779661523240000	     -1.21404380262227730000	    -96.34344186880028400000	     -4.00721015553891120000	     -0.00000000000000407263	     -0.00000000000000479437	     -5.46341990227895820000	      3.22902674345330000000	      2.24789670273067490000	    -11.25978191561995000000	    -18.30991919514496800000	     -3.32186136034471250000	     81.67824990291590800000	     85.77775273291688100000	     -0.00000000000001676828	     -0.00000000000000909526	    -20.17164697878525500000	    -35.74466845767736300000	     27.53833946622185300000	     91.11770263389249200000	     77.31340535837956900000	      0.00000000000000149110	      0.00000000000001305985
      0.59899999999999998000	     -4.79419723395077480000	      0.87738482807211393000	      0.45545313283283911000	      0.70137183939775716000	      0.98903834531649359000	     -0.30543123876543338000	      6.09537078176382340000	      4.77895600574145970000	     -4.45235679868089380000	    -31.30345483860824300000	     12.71943631147719600000	     -0.00000000000001302273	     -0.00000000000002353075	     36.81030706449179500000	      0.78313734145427150000	     -1.26930703770329930000	    -96.01863040741005800000	     -3.96822424061347910000	     -0.00000000000000415558	     -0.00000000000000461500	     -5.44286635768339980000	      3.11028329724232620000	      2.36226626937649580000	    -11.23631948826487400000	    -18.27196208422051500000	     -3.33685837653251530000	     81.90390371340087900000	     85.81376710028561700000	     -0.00000000000001693279	     -0.00000000000000918169	    -20.35070288929491500000	    -35.86500663411644000000	     27.53632417892168500000	     91.24550843476225700000	     77.25990983513183600000	      0.00000000000000150064	      0.00000000000001327537
